<?xml version="1.0" encoding="UTF-8"?>
<svg xmlns:xlink="http://www.w3.org/1999/xlink"
     height="24px"
     version="1.1"
     viewBox="0 0 48 96"
     width="12px"
     xmlns="http://www.w3.org/2000/svg">
    <title>ic_arrow_right</title>
    <g
        fill="none"
        fill-opacity="0.38"
        fill-rule="evenodd"
        id="ic_arrow_right"
        stroke="none"
        stroke-width="1">
        <path
            d="M37.9693213,45.9695198 C38.3426303,46.1558725 38.2136619,45.9929042 37.9693213,45.9695198 C38.0407043,45.8199378 38.0147106,45.8049407 37.9693213,45.9695198 L13.9693213,21.9695198 C12.9128559,20.6768267 11.0163202,20.6768267 9.96932131,21.9695198 C8.6768929,23.0183714 8.6768929,24.9190019 9.96932131,25.9695198 L31.9693213,47.9695198 L9.96932131,69.9695198 C8.67889241,71.024037 8.67889241,72.921668 9.96932131,73.9695198 C11.0133209,75.2622129 12.9098566,75.2622129 13.9693213,73.9695198 L37.9693213,49.9695198 C37.8217579,50.3660538 37.9627234,50.2560752 37.9693213,49.9695198 C39.1264385,49.0933013 39.2444096,47.4946122 37.9693213,45.9695198"
            fill="#000000"
            id="Fill-1"></path>
    </g>
</svg>